<?xml version="1.0" encoding="UTF-8" standalone="no"?>
<!-- Created with Inkscape (http://www.inkscape.org/) -->

<svg
   xmlns:dc="http://purl.org/dc/elements/1.1/"
   xmlns:cc="http://creativecommons.org/ns#"
   xmlns:rdf="http://www.w3.org/1999/02/22-rdf-syntax-ns#"
   xmlns:svg="http://www.w3.org/2000/svg"
   xmlns="http://www.w3.org/2000/svg"
   xmlns:sodipodi="http://sodipodi.sourceforge.net/DTD/sodipodi-0.dtd"
   xmlns:inkscape="http://www.inkscape.org/namespaces/inkscape"
   width="200mm"
   height="200mm"
   viewBox="0 0 200 200"
   version="1.1"
   id="svg8"
   inkscape:version="0.92.4 5da689c313, 2019-01-14"
   sodipodi:docname="logo.svg">
  <defs
     id="defs2">
    <inkscape:perspective
       sodipodi:type="inkscape:persp3d"
       inkscape:vp_x="-14.363095 : 21.758929 : 1"
       inkscape:vp_y="0 : 1000 : 0"
       inkscape:vp_z="185.63691 : 21.758929 : 1"
       inkscape:persp3d-origin="85.636905 : -11.574404 : 1"
       id="perspective3713" />
  </defs>
  <sodipodi:namedview
     id="base"
     pagecolor="#ffffff"
     bordercolor="#666666"
     borderopacity="1.0"
     inkscape:pageopacity="0.0"
     inkscape:pageshadow="2"
     inkscape:zoom="0.7"
     inkscape:cx="-101.04612"
     inkscape:cy="373.77685"
     inkscape:document-units="mm"
     inkscape:current-layer="layer1"
     showgrid="false"
     inkscape:window-width="2560"
     inkscape:window-height="1416"
     inkscape:window-x="2560"
     inkscape:window-y="0"
     inkscape:window-maximized="1" />
  <metadata
     id="metadata5">
    <rdf:RDF>
      <cc:Work
         rdf:about="">
        <dc:format>image/svg+xml</dc:format>
        <dc:type
           rdf:resource="http://purl.org/dc/dcmitype/StillImage" />
        <dc:title></dc:title>
      </cc:Work>
    </rdf:RDF>
  </metadata>
  <g
     inkscape:label="Layer 1"
     inkscape:groupmode="layer"
     id="layer1"
     transform="translate(0,-97)">
    <g
       sodipodi:type="inkscape:box3d"
       id="g3715"
       inkscape:perspectiveID="#perspective3713"
       inkscape:corner0="0.70688343 : 0.14006435 : 0 : 1"
       inkscape:corner7="-0.33858267 : 0.0234416 : 0.25 : 1">
      <path
         sodipodi:type="inkscape:box3dside"
         id="path3717"
         style="fill:#353564;fill-rule:evenodd;stroke:none;stroke-linejoin:round"
         inkscape:box3dsidetype="6"
         d="m 44.223214,212.71131 v 68.32496 l 18.066188,-0.74036 v -59.59616 z"
         points="44.223214,281.03627 62.289402,280.29591 62.289402,220.69975 44.223214,212.71131 " />
      <path
         sodipodi:type="inkscape:box3dside"
         id="path3725"
         style="fill:#afafde;fill-rule:evenodd;stroke:none;stroke-linejoin:round"
         inkscape:box3dsidetype="13"
         d="m 44.223214,281.03627 92.604166,9.16016 13.38836,-4.10223 -87.926338,-5.79829 z"
         points="136.82738,290.19643 150.21574,286.0942 62.289402,280.29591 44.223214,281.03627 " />
      <path
         sodipodi:type="inkscape:box3dside"
         id="path3727"
         style="fill:#e9e9ff;fill-rule:evenodd;stroke:none;stroke-linejoin:round"
         inkscape:box3dsidetype="11"
         d="M 62.289402,220.69975 150.21574,158.13663 V 286.0942 l -87.926338,-5.79829 z"
         points="150.21574,158.13663 150.21574,286.0942 62.289402,280.29591 62.289402,220.69975 " />
      <path
         sodipodi:type="inkscape:box3dside"
         id="path3719"
         style="fill:#4d4d9f;fill-rule:evenodd;stroke:none;stroke-linejoin:round"
         inkscape:box3dsidetype="5"
         d="m 44.223214,212.71131 92.604166,-98.83737 13.38836,44.26269 -87.926338,62.56312 z"
         points="136.82738,113.87394 150.21574,158.13663 62.289402,220.69975 44.223214,212.71131 " />
      <path
         sodipodi:type="inkscape:box3dside"
         id="path3723"
         style="fill:#d7d7ff;fill-rule:evenodd;stroke:none;stroke-linejoin:round"
         inkscape:box3dsidetype="14"
         d="m 136.82738,113.87394 v 176.32249 l 13.38836,-4.10223 V 158.13663 Z"
         points="136.82738,290.19643 150.21574,286.0942 150.21574,158.13663 136.82738,113.87394 " />
      <path
         sodipodi:type="inkscape:box3dside"
         id="path3721"
         style="fill:#8686bf;fill-rule:evenodd;stroke:none;stroke-linejoin:round"
         inkscape:box3dsidetype="3"
         d="M 44.223214,212.71131 136.82738,113.87394 V 290.19643 L 44.223214,281.03627 Z"
         points="136.82738,113.87394 136.82738,290.19643 44.223214,281.03627 44.223214,212.71131 " />
    </g>
    <g
       sodipodi:type="inkscape:box3d"
       id="g3731"
       inkscape:perspectiveID="#perspective3713"
       inkscape:corner0="0.18110237 : 0.22638381 : 0 : 1"
       inkscape:corner7="0.11631617 : 0.058832519 : 0.25 : 1">
      <path
         sodipodi:type="inkscape:box3dside"
         id="path3733"
         style="fill:#353564;fill-rule:evenodd;stroke:none;stroke-linejoin:round"
         inkscape:box3dsidetype="6"
         d="m 70.303572,111.79167 v 141.86009 l 20.147639,3.77145 V 140.34473 Z"
         points="70.303572,253.65176 90.451211,257.42321 90.451211,140.34473 70.303572,111.79167 " />
      <path
         sodipodi:type="inkscape:box3dside"
         id="path3743"
         style="fill:#e9e9ff;fill-rule:evenodd;stroke:none;stroke-linejoin:round"
         inkscape:box3dsidetype="11"
         d="m 90.451211,140.34473 4.969949,-6.39634 v 122.62995 l -4.969949,0.84487 z"
         points="95.42116,133.94839 95.42116,256.57834 90.451211,257.42321 90.451211,140.34473 " />
      <path
         sodipodi:type="inkscape:box3dside"
         id="path3735"
         style="fill:#4d4d9f;fill-rule:evenodd;stroke:none;stroke-linejoin:round"
         inkscape:box3dsidetype="5"
         d="m 70.303572,111.79167 4.91369,-9.4859 20.203898,31.64262 -4.969949,6.39634 z"
         points="75.217262,102.30577 95.42116,133.94839 90.451211,140.34473 70.303572,111.79167 " />
      <path
         sodipodi:type="inkscape:box3dside"
         id="path3741"
         style="fill:#afafde;fill-rule:evenodd;stroke:none;stroke-linejoin:round"
         inkscape:box3dsidetype="13"
         d="m 70.303572,253.65176 4.91369,-1.25295 20.203898,4.17953 -4.969949,0.84487 z"
         points="75.217262,252.39881 95.42116,256.57834 90.451211,257.42321 70.303572,253.65176 " />
      <path
         sodipodi:type="inkscape:box3dside"
         id="path3739"
         style="fill:#d7d7ff;fill-rule:evenodd;stroke:none;stroke-linejoin:round"
         inkscape:box3dsidetype="14"
         d="m 75.217262,102.30577 v 150.09304 l 20.203898,4.17953 V 133.94839 Z"
         points="75.217262,252.39881 95.42116,256.57834 95.42116,133.94839 75.217262,102.30577 " />
      <path
         sodipodi:type="inkscape:box3dside"
         id="path3737"
         style="fill:#8686bf;fill-rule:evenodd;stroke:none;stroke-linejoin:round"
         inkscape:box3dsidetype="3"
         d="m 70.303572,111.79167 4.91369,-9.4859 v 150.09304 l -4.91369,1.25295 z"
         points="75.217262,102.30577 75.217262,252.39881 70.303572,253.65176 70.303572,111.79167 " />
    </g>
  </g>
</svg>
